# xmcd CD database file
#
# Track frame offsets:
#	150
#	16040
#	27537
#	41187
#	49942
#	61742
#	77265
#	92825
#	107600
#	122525
#	135352
#	153625
#
# Disc length: 2215 seconds
#
# Revision: 2
# Processed by: cddbd v1.5.1PL2 Copyright (c) Steve Scherf et al.
# Submitted via: CDex 1.70beta2
#
DISCID=8d08a50c
DTITLE=Various Artist - Country Gospel Disc 2
DYEAR=1997
DGENRE=Country
TTITLE0=Wanda Jackson - Jesus Is The Answer
TTITLE1=The Jordanaires - Amazing Grace
TTITLE2=J.D.Summer and The Stamps - Where Could I Go But To The Lord
TTITLE3=Warner Mack - Kneel At The Cross
TTITLE4=Ned Miller - Will The Circle Be Unbroken
TTITLE5=Melba Montgomery - No Charge
TTITLE6=The Jordanaires - Precious Memories
TTITLE7=Kenny Price - Peace In The Valley
TTITLE8=Ray Price - How Great Thow Art
TTITLE9=Jeanne Pruett - Uncloudy Day
TTITLE10=Jeannie C. Riley - Last Train To Glory
TTITLE11=Johnny Russell - Just A Closer Walk With Thee
EXTD=YEAR: 1997
EXTT0=
EXTT1=
EXTT2=
EXTT3=
EXTT4=
EXTT5=
EXTT6=
EXTT7=
EXTT8=
EXTT9=
EXTT10=
EXTT11=
PLAYORDER=
